<svg xmlns="http://www.w3.org/2000/svg" xmlns:xlink="http://www.w3.org/1999/xlink" width="500" zoomAndPan="magnify" viewBox="0 0 375 374.999991" height="500" preserveAspectRatio="xMidYMid meet" version="1.0"><defs><g/><clipPath id="188231f797"><path d="M 71.035156 71.035156 L 303.964844 71.035156 L 303.964844 303.964844 L 71.035156 303.964844 Z M 71.035156 71.035156 " clip-rule="nonzero"/></clipPath><clipPath id="2f801084c1"><path d="M 187.5 71.035156 C 123.179688 71.035156 71.035156 123.179688 71.035156 187.5 C 71.035156 251.820312 123.179688 303.964844 187.5 303.964844 C 251.820312 303.964844 303.964844 251.820312 303.964844 187.5 C 303.964844 123.179688 251.820312 71.035156 187.5 71.035156 Z M 187.5 71.035156 " clip-rule="nonzero"/></clipPath><clipPath id="63e5fa6358"><path d="M 71.035156 71.035156 L 303.957031 71.035156 L 303.957031 303.957031 L 71.035156 303.957031 Z M 71.035156 71.035156 " clip-rule="nonzero"/></clipPath><clipPath id="9c2935fa30"><path d="M 187.496094 71.035156 C 123.175781 71.035156 71.035156 123.175781 71.035156 187.496094 C 71.035156 251.816406 123.175781 303.957031 187.496094 303.957031 C 251.816406 303.957031 303.957031 251.816406 303.957031 187.496094 C 303.957031 123.175781 251.816406 71.035156 187.496094 71.035156 Z M 187.496094 71.035156 " clip-rule="nonzero"/></clipPath><clipPath id="c448257390"><path d="M 100.546875 100.546875 L 274.453125 100.546875 L 274.453125 274.453125 L 100.546875 274.453125 Z M 100.546875 100.546875 " clip-rule="nonzero"/></clipPath><clipPath id="e6659dd221"><path d="M 187.5 100.546875 C 139.476562 100.546875 100.546875 139.476562 100.546875 187.5 C 100.546875 235.523438 139.476562 274.453125 187.5 274.453125 C 235.523438 274.453125 274.453125 235.523438 274.453125 187.5 C 274.453125 139.476562 235.523438 100.546875 187.5 100.546875 Z M 187.5 100.546875 " clip-rule="nonzero"/></clipPath><clipPath id="5d7bb66cea"><path d="M 107.105469 107.105469 L 267.894531 107.105469 L 267.894531 267.894531 L 107.105469 267.894531 Z M 107.105469 107.105469 " clip-rule="nonzero"/></clipPath><clipPath id="a5820c0d25"><path d="M 187.5 107.105469 C 143.097656 107.105469 107.105469 143.097656 107.105469 187.5 C 107.105469 231.902344 143.097656 267.894531 187.5 267.894531 C 231.902344 267.894531 267.894531 231.902344 267.894531 187.5 C 267.894531 143.097656 231.902344 107.105469 187.5 107.105469 Z M 187.5 107.105469 " clip-rule="nonzero"/></clipPath><clipPath id="a0910d2d6c"><path d="M 162 146.476562 L 207 146.476562 L 207 225 L 162 225 Z M 162 146.476562 " clip-rule="nonzero"/></clipPath><clipPath id="31a460db95"><path d="M 115.527344 169 L 171 169 L 171 228.226562 L 115.527344 228.226562 Z M 115.527344 169 " clip-rule="nonzero"/></clipPath><clipPath id="e507c7fa1c"><path d="M 195.890625 156 L 259.421875 156 L 259.421875 187.121094 L 195.890625 187.121094 Z M 195.890625 156 " clip-rule="nonzero"/></clipPath><clipPath id="f808ff75bd"><path d="M 172.457031 184.433594 L 257.648438 184.433594 L 257.648438 228.226562 L 172.457031 228.226562 Z M 172.457031 184.433594 " clip-rule="nonzero"/></clipPath><clipPath id="693b58510e"><path d="M 80.503906 187.5 L 92.28125 187.5 L 92.28125 199.277344 L 80.503906 199.277344 Z M 80.503906 187.5 " clip-rule="nonzero"/></clipPath><clipPath id="6e0bb6bd98"><path d="M 86.394531 187.5 C 83.140625 187.5 80.503906 190.136719 80.503906 193.390625 C 80.503906 196.640625 83.140625 199.277344 86.394531 199.277344 C 89.644531 199.277344 92.28125 196.640625 92.28125 193.390625 C 92.28125 190.136719 89.644531 187.5 86.394531 187.5 Z M 86.394531 187.5 " clip-rule="nonzero"/></clipPath><clipPath id="636e44e89a"><path d="M 282.703125 187.5 L 294.480469 187.5 L 294.480469 199.277344 L 282.703125 199.277344 Z M 282.703125 187.5 " clip-rule="nonzero"/></clipPath><clipPath id="cfb8ac744f"><path d="M 288.59375 187.5 C 285.339844 187.5 282.703125 190.136719 282.703125 193.390625 C 282.703125 196.640625 285.339844 199.277344 288.59375 199.277344 C 291.84375 199.277344 294.480469 196.640625 294.480469 193.390625 C 294.480469 190.136719 291.84375 187.5 288.59375 187.5 Z M 288.59375 187.5 " clip-rule="nonzero"/></clipPath></defs><g clip-path="url(#188231f797)"><g clip-path="url(#2f801084c1)"><path fill="#ffffff" d="M 71.035156 71.035156 L 303.964844 71.035156 L 303.964844 303.964844 L 71.035156 303.964844 Z M 71.035156 71.035156 " fill-opacity="1" fill-rule="nonzero"/></g></g><g clip-path="url(#63e5fa6358)"><g clip-path="url(#9c2935fa30)"><path stroke-linecap="butt" transform="matrix(0.75, 0, 0, 0.75, 71.03537, 71.035366)" fill="none" stroke-linejoin="miter" d="M 155.280975 -0.000279314 C 69.520553 -0.000279314 -0.000285314 69.520559 -0.000285314 155.280981 C -0.000285314 241.041403 69.520553 310.562241 155.280975 310.562241 C 241.041397 310.562241 310.562235 241.041403 310.562235 155.280981 C 310.562235 69.520559 241.041397 -0.000279314 155.280975 -0.000279314 Z M 155.280975 -0.000279314 " stroke="#3a73c1" stroke-width="6" stroke-opacity="1" stroke-miterlimit="4"/></g></g><g clip-path="url(#c448257390)"><g clip-path="url(#e6659dd221)"><path fill="#ffffff" d="M 100.546875 100.546875 L 274.453125 100.546875 L 274.453125 274.453125 L 100.546875 274.453125 Z M 100.546875 100.546875 " fill-opacity="1" fill-rule="nonzero"/><path stroke-linecap="butt" transform="matrix(0.75, 0, 0, 0.75, 100.546493, 100.546489)" fill="none" stroke-linejoin="miter" d="M 115.938017 0.000515203 C 51.906763 0.000515203 0.000509203 51.906769 0.000509203 115.938023 C 0.000509203 179.969277 51.906763 231.87553 115.938017 231.87553 C 179.969271 231.87553 231.875524 179.969277 231.875524 115.938023 C 231.875524 51.906769 179.969271 0.000515203 115.938017 0.000515203 Z M 115.938017 0.000515203 " stroke="#3a73c1" stroke-width="4" stroke-opacity="1" stroke-miterlimit="4"/></g></g><g clip-path="url(#5d7bb66cea)"><g clip-path="url(#a5820c0d25)"><path fill="#3a73c1" d="M 107.105469 107.105469 L 267.894531 107.105469 L 267.894531 267.894531 L 107.105469 267.894531 Z M 107.105469 107.105469 " fill-opacity="1" fill-rule="nonzero"/></g></g><g clip-path="url(#a0910d2d6c)"><path fill="#ffffff" d="M 168.640625 224.746094 C 168.640625 224.746094 168.746094 201.164062 206.234375 170.097656 C 206.234375 170.097656 167.316406 197.074219 171.03125 146.476562 C 171.03125 146.476562 153.570312 181.625 168.640625 224.746094 " fill-opacity="1" fill-rule="nonzero"/></g><path fill="#ffffff" d="M 187.746094 159.320312 C 191.777344 161.890625 192.785156 167.519531 190 171.894531 C 187.210938 176.269531 181.683594 177.730469 177.648438 175.160156 C 173.617188 172.589844 172.605469 166.960938 175.394531 162.585938 C 178.183594 158.214844 183.710938 156.75 187.746094 159.320312 " fill-opacity="1" fill-rule="nonzero"/><g clip-path="url(#31a460db95)"><path fill="#f8b31a" d="M 170.015625 228.273438 C 170.015625 228.273438 153.25 214.414062 153.007812 169.511719 C 153.007812 169.511719 149.5 213.042969 115.582031 180.808594 C 115.582031 180.808594 130.441406 213.816406 170.015625 228.273438 " fill-opacity="1" fill-rule="nonzero"/></g><path fill="#f8b31a" d="M 134.511719 176.398438 C 138.703125 175.023438 143.308594 177.597656 144.800781 182.140625 C 146.289062 186.6875 144.101562 191.484375 139.910156 192.859375 C 135.71875 194.234375 131.113281 191.660156 129.621094 187.117188 C 128.132812 182.570312 130.320312 177.773438 134.511719 176.398438 " fill-opacity="1" fill-rule="nonzero"/><path fill="#ffffff" d="M 249.78125 171.632812 L 224.277344 210.347656 C 196.382812 204.152344 178.601562 212.652344 175.847656 214.386719 C 175.847656 214.386719 200.601562 171.40625 249.78125 171.632812 " fill-opacity="1" fill-rule="nonzero"/><g clip-path="url(#e507c7fa1c)"><path fill="#f8b31a" d="M 259.421875 156.066406 L 253.382812 165.234375 C 227.492188 164.789062 207.84375 176.871094 195.902344 187.105469 C 206.84375 174.621094 228.042969 156.550781 259.421875 156.066406 " fill-opacity="1" fill-rule="nonzero"/></g><path fill="#ffffff" d="M 254.058594 179.554688 L 228.027344 218.148438 C 196.832031 210.6875 177.277344 219.867188 174.148438 221.5 L 175.097656 217.523438 C 180.828125 214.777344 199.734375 208.375 227.429688 214.996094 L 251.570312 179.007812 C 252.394531 179.175781 253.222656 179.355469 254.058594 179.554688 " fill-opacity="1" fill-rule="nonzero"/><g clip-path="url(#f808ff75bd)"><path fill="#ffffff" d="M 257.640625 185.042969 L 230.777344 224.777344 C 196.46875 216.574219 175.273438 227.011719 172.46875 228.515625 L 173.417969 224.554688 C 179.414062 221.628906 199.847656 214.5 230.050781 221.722656 L 255.101562 184.484375 C 255.941406 184.652344 256.789062 184.839844 257.640625 185.042969 " fill-opacity="1" fill-rule="nonzero"/></g><g clip-path="url(#693b58510e)"><g clip-path="url(#6e0bb6bd98)"><path fill="#00609e" d="M 80.503906 187.5 L 92.28125 187.5 L 92.28125 199.277344 L 80.503906 199.277344 Z M 80.503906 187.5 " fill-opacity="1" fill-rule="nonzero"/></g></g><g clip-path="url(#636e44e89a)"><g clip-path="url(#cfb8ac744f)"><path fill="#00609e" d="M 282.703125 187.5 L 294.480469 187.5 L 294.480469 199.277344 L 282.703125 199.277344 Z M 282.703125 187.5 " fill-opacity="1" fill-rule="nonzero"/></g></g><g fill="#00609e" fill-opacity="1"><g transform="translate(117.483219, 128.674839)"><g><path d="M -11.875 -15.375 L 0.171875 -26.953125 L 3.390625 -23.59375 L -4.1875 -16.3125 L -2.359375 -14.40625 L 4.125 -20.625 L 7.203125 -17.421875 L 0.71875 -11.203125 L 2.765625 -9.0625 L 10.484375 -16.46875 L 13.6875 -13.140625 L 1.5 -1.4375 Z M -11.875 -15.375 "/></g></g></g><g fill="#00609e" fill-opacity="1"><g transform="translate(130.648597, 115.656454)"><g><path d="M -1.234375 -21.90625 C 4.503906 -25.445312 9.0625 -24.476562 12.4375 -19 C 15.8125 -13.519531 14.628906 -9.007812 8.890625 -5.46875 L 1.765625 -1.09375 L -8.359375 -17.53125 Z M 4.625 -8.28125 L 6.375 -9.359375 C 8.59375 -10.722656 8.96875 -12.59375 7.5 -14.96875 L 6.625 -16.40625 C 5.15625 -18.769531 3.3125 -19.269531 1.09375 -17.90625 L -0.65625 -16.828125 Z M 4.625 -8.28125 "/></g></g></g><g fill="#00609e" fill-opacity="1"><g transform="translate(147.492939, 104.924228)"><g><path d="M 17.71875 -14.125 C 18.550781 -11.625 18.398438 -9.453125 17.265625 -7.609375 C 16.128906 -5.765625 14.109375 -4.359375 11.203125 -3.390625 C 8.285156 -2.410156 5.8125 -2.3125 3.78125 -3.09375 C 1.757812 -3.875 0.332031 -5.515625 -0.5 -8.015625 L -4.171875 -18.96875 L 1.71875 -20.9375 L 5.359375 -10.078125 C 5.703125 -9.046875 6.25 -8.316406 7 -7.890625 C 7.757812 -7.472656 8.660156 -7.4375 9.703125 -7.78125 C 10.753906 -8.132812 11.453125 -8.710938 11.796875 -9.515625 C 12.148438 -10.328125 12.15625 -11.238281 11.8125 -12.25 L 8.171875 -23.109375 L 14.046875 -25.078125 Z M 17.71875 -14.125 "/></g></g></g><g fill="#00609e" fill-opacity="1"><g transform="translate(167.831513, 97.971484)"><g><path d="M 7.296875 -0.6875 L -1.34375 -19.265625 L 5.234375 -19.890625 L 10.3125 -7.390625 L 10.421875 -7.40625 L 13.09375 -20.640625 L 19.40625 -21.234375 L 14.453125 -1.375 Z M 7.296875 -0.6875 "/></g></g></g><g fill="#00609e" fill-opacity="1"><g transform="translate(187.739772, 95.878251)"><g><path d="M 14.890625 1.890625 L 14.4375 -0.921875 L 7.71875 -1.765625 L 6.578125 0.828125 L 0.28125 0.03125 L 9.703125 -18.234375 L 16.859375 -17.328125 L 21.40625 2.71875 Z M 9.5625 -5.890625 L 13.6875 -5.359375 L 12.546875 -12.4375 L 12.453125 -12.453125 Z M 9.5625 -5.890625 "/></g></g></g><g fill="#00609e" fill-opacity="1"><g transform="translate(207.589847, 98.091629)"><g><path d="M 22.671875 0.125 C 21.753906 2.59375 20.269531 4.1875 18.21875 4.90625 C 16.175781 5.625 13.71875 5.453125 10.84375 4.390625 C 7.96875 3.328125 5.988281 1.851562 4.90625 -0.03125 C 3.820312 -1.914062 3.738281 -4.09375 4.65625 -6.5625 L 8.671875 -17.390625 L 14.484375 -15.234375 L 10.5 -4.5 C 10.125 -3.476562 10.09375 -2.5625 10.40625 -1.75 C 10.726562 -0.945312 11.40625 -0.351562 12.4375 0.03125 C 13.476562 0.40625 14.382812 0.390625 15.15625 -0.015625 C 15.9375 -0.421875 16.515625 -1.125 16.890625 -2.125 L 20.875 -12.859375 L 26.6875 -10.703125 Z M 22.671875 0.125 "/></g></g></g><g fill="#00609e" fill-opacity="1"><g transform="translate(227.815022, 105.65201)"><g><path d="M 12.140625 -15.15625 L 17.375 -11.828125 L 9.640625 0.296875 L 17.984375 5.625 L 15.328125 9.78125 L 1.75 1.125 Z M 12.140625 -15.15625 "/></g></g></g><g fill="#00609e" fill-opacity="1"><g transform="translate(242.346961, 114.640758)"><g><path d="M 19.46875 -1.234375 L 9.515625 9.140625 L 5.03125 4.84375 L 14.984375 -5.53125 L 10.421875 -9.9375 L 13.84375 -13.5 L 27.4375 -0.4375 L 24.015625 3.125 Z M 19.46875 -1.234375 "/></g></g></g><g fill="#00609e" fill-opacity="1"><g transform="translate(81.945615, 216.259511)"><g><path d="M 15.9375 4.6875 C 16.1875 5.5 16.222656 6.28125 16.046875 7.03125 C 15.867188 7.789062 15.503906 8.453125 14.953125 9.015625 C 14.410156 9.578125 13.734375 9.988281 12.921875 10.25 L 12.6875 10.328125 C 11.851562 10.578125 11.050781 10.625 10.28125 10.46875 C 9.507812 10.320312 8.832031 9.988281 8.25 9.46875 C 7.675781 8.957031 7.265625 8.296875 7.015625 7.484375 L 6.015625 4.328125 L 1.765625 5.65625 L 0.4375 1.421875 L 13.609375 -2.703125 Z M 9.109375 3.359375 L 9.65625 5.09375 C 9.800781 5.539062 10.019531 5.835938 10.3125 5.984375 C 10.601562 6.140625 10.953125 6.15625 11.359375 6.03125 L 11.5 5.984375 C 11.90625 5.859375 12.1875 5.648438 12.34375 5.359375 C 12.5 5.066406 12.503906 4.695312 12.359375 4.25 L 11.8125 2.515625 Z M 9.109375 3.359375 "/></g></g></g><g fill="#00609e" fill-opacity="1"><g transform="translate(86.587503, 230.88998)"><g><path d="M 13.09375 -4.59375 L 18.234375 6.171875 L 15.265625 7.59375 L 12.03125 0.828125 L 10.3125 1.640625 L 13.078125 7.4375 L 10.203125 8.8125 L 7.4375 3.015625 L 5.53125 3.921875 L 8.8125 10.828125 L 5.828125 12.25 L 0.640625 1.34375 Z M 13.09375 -4.59375 "/></g></g></g><g fill="#00609e" fill-opacity="1"><g transform="translate(93.167287, 244.929997)"><g><path d="M 7.625 10.953125 L 11.703125 8.109375 C 12.203125 7.765625 12.734375 7.421875 13.296875 7.078125 C 13.859375 6.742188 14.335938 6.472656 14.734375 6.265625 C 15.128906 6.066406 15.375 5.929688 15.46875 5.859375 L 15.421875 5.796875 L 6.296875 9.0625 L 4.3125 6.203125 L 10.515625 -1.21875 L 10.46875 -1.28125 C 10.375 -1.21875 10.164062 -1.035156 9.84375 -0.734375 C 9.519531 -0.441406 9.101562 -0.0859375 8.59375 0.328125 C 8.09375 0.753906 7.59375 1.140625 7.09375 1.484375 L 3.015625 4.328125 L 0.6875 0.984375 L 12.015625 -6.890625 L 15.59375 -1.75 L 10.25 4.5 L 10.296875 4.5625 L 18.015625 1.734375 L 21.453125 6.6875 L 10.125 14.5625 Z M 7.625 10.953125 "/></g></g></g><g fill="#00609e" fill-opacity="1"><g transform="translate(104.755671, 261.195419)"><g><path d="M 17.328125 -2.0625 C 17.816406 -1.5625 18.160156 -1 18.359375 -0.375 C 18.566406 0.238281 18.601562 0.847656 18.46875 1.453125 C 18.332031 2.054688 18.035156 2.582031 17.578125 3.03125 C 16.367188 4.226562 15.066406 4.429688 13.671875 3.640625 L 13.609375 3.6875 C 14.546875 5.226562 14.34375 6.660156 13 7.984375 C 12.476562 8.492188 11.894531 8.816406 11.25 8.953125 C 10.613281 9.097656 9.96875 9.054688 9.3125 8.828125 C 8.65625 8.597656 8.070312 8.222656 7.5625 7.703125 L 1.046875 1.0625 L 10.890625 -8.609375 Z M 10.171875 -1.6875 L 12.296875 0.484375 C 12.503906 0.691406 12.75 0.789062 13.03125 0.78125 C 13.3125 0.78125 13.5625 0.671875 13.78125 0.453125 L 13.921875 0.328125 C 14.140625 0.117188 14.25 -0.128906 14.25 -0.421875 C 14.257812 -0.710938 14.164062 -0.960938 13.96875 -1.171875 L 11.84375 -3.34375 Z M 6.4375 1.96875 L 8.78125 4.375 C 9 4.582031 9.25 4.679688 9.53125 4.671875 C 9.8125 4.671875 10.0625 4.5625 10.28125 4.34375 L 10.421875 4.203125 C 10.640625 3.992188 10.757812 3.742188 10.78125 3.453125 C 10.800781 3.171875 10.703125 2.925781 10.484375 2.71875 L 8.140625 0.3125 Z M 6.4375 1.96875 "/></g></g></g><g fill="#00609e" fill-opacity="1"><g transform="translate(116.398939, 272.891776)"><g><path d="M 9.515625 -10.109375 L 19.03125 -2.90625 L 17.03125 -0.28125 L 11.046875 -4.796875 L 9.90625 -3.28125 L 15.03125 0.578125 L 13.109375 3.109375 L 7.984375 -0.75 L 6.71875 0.9375 L 12.8125 5.546875 L 10.8125 8.1875 L 1.1875 0.890625 Z M 9.515625 -10.109375 "/></g></g></g><g fill="#00609e" fill-opacity="1"><g transform="translate(128.667713, 282.055553)"><g><path d="M 8.046875 -11.3125 L 11.90625 -9.140625 L 6.890625 -0.1875 L 13.078125 3.28125 L 11.34375 6.359375 L 1.296875 0.71875 Z M 8.046875 -11.3125 "/></g></g></g><g fill="#00609e" fill-opacity="1"><g transform="translate(141.0873, 289.046118)"><g><path d="M 10.015625 3.875 L 10.171875 1.84375 L 5.65625 0.09375 L 4.40625 1.71875 L 0.1875 0.078125 L 9.859375 -10.96875 L 14.671875 -9.109375 L 14.375 5.578125 Z M 7.625 -2.4375 L 10.421875 -1.34375 L 10.84375 -6.46875 L 10.78125 -6.5 Z M 7.625 -2.4375 "/></g></g></g><g fill="#00609e" fill-opacity="1"><g transform="translate(156.491328, 294.869974)"><g><path d="M 12.671875 -1.984375 C 12.273438 -0.296875 11.507812 0.832031 10.375 1.40625 C 9.238281 1.976562 7.769531 2.050781 5.96875 1.625 C 4.164062 1.207031 2.878906 0.492188 2.109375 -0.515625 C 1.335938 -1.523438 1.148438 -2.875 1.546875 -4.5625 L 1.578125 -4.734375 L 5.609375 -3.796875 L 5.578125 -3.640625 C 5.429688 -3.035156 5.441406 -2.570312 5.609375 -2.25 C 5.773438 -1.9375 6.09375 -1.726562 6.5625 -1.625 C 7.039062 -1.507812 7.425781 -1.554688 7.71875 -1.765625 C 8.007812 -1.984375 8.226562 -2.394531 8.375 -3 L 10.40625 -11.75 L 14.703125 -10.75 Z M 12.671875 -1.984375 "/></g></g></g><g fill="#00609e" fill-opacity="1"><g transform="translate(170.368906, 298.114454)"><g><path d="M 10.6875 0.9375 L 10.296875 -1.078125 L 5.46875 -1.484375 L 4.71875 0.40625 L 0.203125 0.015625 L 6.421875 -13.296875 L 11.546875 -12.84375 L 15.359375 1.34375 Z M 6.640625 -4.46875 L 9.640625 -4.21875 L 8.609375 -9.25 L 8.53125 -9.25 Z M 6.640625 -4.46875 "/></g></g></g><g fill="#00609e" fill-opacity="1"><g transform="translate(186.855797, 299.480137)"><g><path d="M 13.921875 -10.5 C 13.972656 -9.664062 13.796875 -8.890625 13.390625 -8.171875 C 12.984375 -7.460938 12.359375 -6.921875 11.515625 -6.546875 L 14.953125 -0.984375 L 10 -0.65625 L 7.21875 -5.515625 L 5.578125 -5.40625 L 5.90625 -0.390625 L 1.484375 -0.09375 L 0.578125 -13.859375 L 9.015625 -14.421875 C 9.992188 -14.484375 10.84375 -14.347656 11.5625 -14.015625 C 12.289062 -13.679688 12.851562 -13.203125 13.25 -12.578125 C 13.644531 -11.960938 13.867188 -11.269531 13.921875 -10.5 Z M 9.453125 -10.03125 C 9.421875 -10.394531 9.273438 -10.6875 9.015625 -10.90625 C 8.753906 -11.132812 8.453125 -11.238281 8.109375 -11.21875 L 5.203125 -11.03125 L 5.375 -8.484375 L 8.28125 -8.671875 C 8.625 -8.691406 8.910156 -8.832031 9.140625 -9.09375 C 9.367188 -9.351562 9.472656 -9.664062 9.453125 -10.03125 Z M 9.453125 -10.03125 "/></g></g></g><g fill="#00609e" fill-opacity="1"><g transform="translate(203.358977, 298.327649)"><g><path d="M 10.484375 -2.3125 L 9.5 -4.09375 L 4.765625 -3.046875 L 4.625 -1.015625 L 0.203125 -0.046875 L 2.125 -14.59375 L 7.15625 -15.71875 L 15.0625 -3.328125 Z M 5 -6.25 L 7.921875 -6.90625 L 5.4375 -11.40625 L 5.359375 -11.390625 Z M 5 -6.25 "/></g></g></g><g fill="#00609e" fill-opacity="1"><g transform="translate(219.542125, 294.714365)"><g><path d="M 10.5625 -4.171875 L 2.71875 -8.28125 L 5.171875 -2.046875 L 1.375 -0.546875 L -3.6875 -13.375 L -0.078125 -14.796875 L 7.8125 -10.609375 L 5.3125 -16.921875 L 9.109375 -18.421875 L 14.171875 -5.59375 Z M 10.5625 -4.171875 "/></g></g></g><g fill="#00609e" fill-opacity="1"><g transform="translate(235.598785, 288.035216)"><g/></g></g><g fill="#00609e" fill-opacity="1"><g transform="translate(242.343799, 284.819853)"><g><path d="M 10.90625 -7.703125 L 8.046875 -11.765625 C 7.691406 -12.265625 7.34375 -12.789062 7 -13.34375 C 6.65625 -13.90625 6.375 -14.382812 6.15625 -14.78125 C 5.945312 -15.175781 5.816406 -15.421875 5.765625 -15.515625 L 5.703125 -15.46875 L 9.015625 -6.359375 L 6.171875 -4.359375 L -1.296875 -10.515625 L -1.359375 -10.46875 C -1.285156 -10.375 -1.097656 -10.164062 -0.796875 -9.84375 C -0.503906 -9.519531 -0.144531 -9.109375 0.28125 -8.609375 C 0.707031 -8.109375 1.097656 -7.609375 1.453125 -7.109375 L 4.3125 -3.046875 L 0.984375 -0.6875 L -6.96875 -11.953125 L -1.859375 -15.578125 L 4.421875 -10.28125 L 4.484375 -10.328125 L 1.609375 -18.015625 L 6.53125 -21.5 L 14.484375 -10.234375 Z M 10.90625 -7.703125 "/></g></g></g><g fill="#00609e" fill-opacity="1"><g transform="translate(258.578814, 273.125975)"><g><path d="M 6.78125 -14.734375 C 8.125 -13.398438 8.726562 -11.957031 8.59375 -10.40625 C 8.457031 -8.863281 7.613281 -7.316406 6.0625 -5.765625 C 4.519531 -4.210938 2.972656 -3.359375 1.421875 -3.203125 C -0.117188 -3.046875 -1.5625 -3.632812 -2.90625 -4.96875 L -8.734375 -10.765625 L -5.609375 -13.921875 L 0.1875 -8.171875 C 0.738281 -7.617188 1.320312 -7.320312 1.9375 -7.28125 C 2.5625 -7.25 3.148438 -7.515625 3.703125 -8.078125 C 4.265625 -8.640625 4.523438 -9.234375 4.484375 -9.859375 C 4.453125 -10.492188 4.164062 -11.082031 3.625 -11.625 L -2.171875 -17.375 L 0.953125 -20.53125 Z M 6.78125 -14.734375 "/></g></g></g><g fill="#00609e" fill-opacity="1"><g transform="translate(270.950543, 260.495606)"><g><path d="M -6.828125 -14.125 C -4.003906 -18.03125 -0.734375 -18.640625 2.984375 -15.953125 C 6.722656 -13.265625 7.179688 -9.96875 4.359375 -6.0625 L 0.875 -1.203125 L -10.3125 -9.265625 Z M 0.78125 -6.75 L 1.625 -7.9375 C 2.71875 -9.4375 2.457031 -10.769531 0.84375 -11.9375 L -0.125 -12.640625 C -1.75 -13.804688 -3.109375 -13.640625 -4.203125 -12.140625 L -5.046875 -10.953125 Z M 0.78125 -6.75 "/></g></g></g><g fill="#00609e" fill-opacity="1"><g transform="translate(280.562494, 247.031045)"><g><path d="M 4.875 -9.5625 L 2.875 -9.9375 L 0.6875 -5.625 L 2.15625 -4.21875 L 0.09375 -0.1875 L -9.90625 -10.921875 L -7.5625 -15.515625 L 7.015625 -13.734375 Z M -1.65625 -7.828125 L -0.28125 -10.5 L -5.328125 -11.46875 L -5.359375 -11.390625 Z M -1.65625 -7.828125 "/></g></g></g><g fill="#00609e" fill-opacity="1"><g transform="translate(288.074177, 232.251366)"><g><path d="M 3.34375 -10.265625 L -1.640625 -11.890625 L -3.15625 -7.25 L 1.828125 -5.625 L 0.453125 -1.40625 L -12.671875 -5.671875 L -11.296875 -9.890625 L -6.515625 -8.328125 L -5 -12.96875 L -9.78125 -14.53125 L -8.421875 -18.75 L 4.703125 -14.484375 Z M 3.34375 -10.265625 "/></g></g></g></svg>